<svg xmlns="http://www.w3.org/2000/svg" viewBox="0 0 512 512">
  <defs>
    <linearGradient id="allos" x1="0" y1="0" x2="1" y2="0">
      <stop offset="0" stop-color="#3a7dac" />
      <stop offset="1" stop-color="#22c55e" />
    </linearGradient>
  </defs>
  <rect width="512" height="512" rx="96" fill="#0b100e" />
  <!-- Allos allostatic-wave mark (matches LOGO_PATH in lib/logo.ts), centered + scaled -->
  <g transform="translate(-108 73) scale(2.8)" fill="none" stroke="url(#allos)" stroke-width="12" stroke-linecap="round" stroke-miterlimit="10">
    <path d="m59.9 107c7.7 0 12.3-4.1 12.3-12.2 0-2.5 0-12.6 0-16.1 0-16.8 28.3-16.8 28.3-0.4 0 2.9 0.3 12.6 0.3 16.2 0 17.6 28.7 16.8 28.7-0.5 0-8.3 0.2-50.1 0.2-58.6 0-15.7 28.1-15.9 28.1-0.4 0 12.1-0.1 21.6-0.1 37.5 0 17.1 28.5 17.4 28.5 0.8 0-3.8 0.1-10 0.1-13.6 0-9.5 3.9-15.8 13.7-15.8" />
  </g>
</svg>
